<?xml version="1.0" encoding="utf-8"?>
<!-- Generator: Adobe Illustrator 24.0.2, SVG Export Plug-In . SVG Version: 6.00 Build 0)  -->
<svg version="1.1" id="Capa_1" xmlns="http://www.w3.org/2000/svg" xmlns:xlink="http://www.w3.org/1999/xlink" x="0px" y="0px"
	 viewBox="0 0 868.9 291.4" style="enable-background:new 0 0 868.9 291.4;" xml:space="preserve">
<style type="text/css">
	.st0{fill:#6122B2;stroke:#6122B2;stroke-width:5;stroke-miterlimit:10;}
	.st1{fill:#3F2956;}
</style>
<title>logo-gowup</title>
<path class="st0" d="M583.6,9.6l4.6,8l3.4,6.1c-8.3,4.6-25.6,14.2-42.8,23.8c-47.9,27-50.1,29.6-51.4,31.1
	c-2.4,2.8-4.4,9.3-13.2,43.7c-3.6,14.1-7.4,28.7-10.9,40.7c-2.4,8.4-4.2,13.6-5.4,16.8c-5.6-5.9-15.5-17.8-23.6-27.7
	c-9.3-11.2-18.9-22.9-27.1-32c-12.7-14.1-17.8-17.1-22-17.4h-0.3h-0.2c-1.1,0-2,0.2-3,0.6c-6.7,2.7-9.8,14.7-18.5,61.6
	c-2.3,12.3-4.7,25.2-7,35c-1,4.8-2.3,9.6-3.8,14.3c-5.6-3.1-17.2-11.7-25.2-17.6c-21.9-16.4-35.9-26.3-44.4-26.8h-0.3
	c-0.4,0-0.8,0-1.1,0h-0.2c-3.7,0.3-10.6,0.8-41.7,39c-14.8,18.3-28.1,36.4-28.6,37.1l-25.3,35.4l34.2-26.8
	c30.4-23.8,59.3-44.6,66-47.7c4.4,2,18.6,12.9,28.1,20.3c25.8,19.8,42.2,32,51.4,32.5h1.1c0.8,0,1.5-0.2,2.3-0.4
	c8.8-2.7,12.4-18.9,19.9-61c2.3-13,5.6-31.8,8.2-39.7c3,2.7,5.7,5.6,8.3,8.7c6,6.9,13.2,16.1,20.2,24.9c22.2,28.1,32.2,39.8,39.7,41
	l0.4,0.1h1.2h0.5h0.2c0.2,0,0.4-0.1,0.7-0.1c5.6-1.1,10.3-7.5,19.7-37.5c6-19.3,12.4-43.7,17.5-63.3c3.5-13.3,7.8-29.9,9.3-33.4
	c5-4.1,39.7-23.6,82.6-46.4l0,0l0.3-0.2l8,14.5l36.9-53l7.8-11L583.6,9.6z"/>
<g>
	<path class="st1" d="M19.9,260.1h33.8c4.2,0,7.5-0.5,9.7-1.6c2.3-1.1,4-2.7,5-4.8c1.1-2.1,1.7-4.8,1.9-7.9
		c0.2-3.2,0.3-6.9,0.3-11.1v-16.9c0,2.1-0.9,3.8-2.6,4.9c-1.8,1.1-3.9,2-6.5,2.5c-2.6,0.5-5.3,0.8-8.3,0.9c-3,0.1-5.6,0.1-8,0.1
		c-6.4,0-12.1-0.6-17.4-1.7c-5.2-1.1-9.7-3-13.3-5.7c-3.7-2.6-6.5-6.1-8.6-10.4c-2-4.3-3.1-9.7-3.1-16v-50.8c0-6.4,1-11.7,3.1-16
		c2-4.3,4.9-7.8,8.6-10.4c3.7-2.6,8.1-4.5,13.3-5.7c5.2-1.1,11-1.7,17.4-1.7c2.4,0,4.6,0.1,6.8,0.2c2.2,0.1,4.3,0.4,6.3,1
		c2,0.5,4.1,1.4,6.1,2.5c2,1.1,4.1,2.8,6.2,4.9v-8.6h33.8v135.4c0,6.4-1,11.7-3.1,16c-2,4.3-4.9,7.8-8.6,10.4
		c-3.7,2.6-8.1,4.5-13.3,5.7c-5.2,1.1-11,1.7-17.4,1.7H19.9V260.1z M36.8,184c0,4.2,0.1,7.9,0.3,11.1c0.2,3.2,0.8,5.8,1.9,7.9
		c1.1,2.1,2.7,3.7,5,4.8c2.3,1.1,5.5,1.6,9.7,1.6c4.2,0,7.5-0.5,9.7-1.6c2.3-1.1,4-2.7,5-4.8c1.1-2.1,1.7-4.7,1.9-7.9
		c0.2-3.2,0.3-6.9,0.3-11.1v-34.9c0-3.9-0.1-7.4-0.3-10.4c-0.2-3-0.8-5.6-1.9-7.7c-1.1-2.1-2.7-3.6-5-4.7c-2.3-1-5.5-1.6-9.7-1.6
		c-4.2,0-7.5,0.5-9.7,1.6c-2.3,1.1-4,2.7-5,4.8c-1.1,2.1-1.7,4.7-1.9,7.9c-0.2,3.2-0.3,6.9-0.3,11.1V184z"/>
	<path class="st1" d="M120.8,141.7c0-6.4,1.4-11.7,4.3-16c2.9-4.3,6.7-7.8,11.5-10.4c4.8-2.6,10.2-4.5,16.3-5.7
		c6.1-1.1,12.3-1.7,18.6-1.7c6.4,0,12.6,0.6,18.6,1.7c6.1,1.1,11.5,3,16.3,5.7c4.8,2.6,8.6,6.1,11.5,10.4c2.9,4.3,4.3,9.7,4.3,16
		v50.8c0,6.4-1.4,11.7-4.3,16c-2.9,4.3-6.7,7.8-11.5,10.4c-4.8,2.6-10.2,4.5-16.3,5.7c-6.1,1.1-12.3,1.7-18.6,1.7
		c-6.4,0-12.6-0.6-18.6-1.7c-6.1-1.1-11.5-3-16.3-5.7c-4.8-2.6-8.6-6.1-11.5-10.4c-2.9-4.3-4.3-9.7-4.3-16V141.7z M154.7,184
		c0,4.2,0.1,7.9,0.3,11.1c0.2,3.2,0.8,5.8,1.9,7.9c1.1,2.1,2.7,3.7,5,4.8c2.3,1.1,5.5,1.6,9.7,1.6c4.2,0,7.5-0.5,9.7-1.6
		c2.3-1.1,4-2.7,5-4.8c1.1-2.1,1.7-4.7,1.9-7.9c0.2-3.2,0.3-6.9,0.3-11.1v-33.8c0-4.2-0.1-7.9-0.3-11.1c-0.2-3.2-0.8-5.8-1.9-7.9
		c-1.1-2.1-2.7-3.7-5-4.8c-2.3-1.1-5.5-1.6-9.7-1.6c-4.2,0-7.5,0.5-9.7,1.6c-2.3,1.1-4,2.7-5,4.8c-1.1,2.1-1.7,4.7-1.9,7.9
		c-0.2,3.2-0.3,6.9-0.3,11.1V184z"/>
	<path class="st1" d="M595.2,184c0,4.2,0.1,7.9,0.3,11.1c0.2,3.2,0.8,5.8,1.9,7.9c1.1,2.1,2.7,3.7,5,4.8c2.3,1.1,5.5,1.6,9.7,1.6
		c4.2,0,7.5-0.7,9.7-2c2.3-1.4,4-3.2,5-5.5c1.1-2.3,1.7-5,1.9-8.1c0.2-3.1,0.3-6.3,0.3-9.7v-76.2h33.8v118.5h-33.8v-8.5
		c-2.1,2.1-4.2,3.8-6.2,4.9c-2,1.1-4,2-6.1,2.5s-4.1,0.8-6.3,0.9c-2.2,0.1-4.4,0.1-6.8,0.1c-6.4,0-12.1-0.6-17.4-1.7
		c-5.2-1.1-9.7-3-13.3-5.7c-3.7-2.6-6.5-6.1-8.6-10.4c-2-4.3-3.1-9.7-3.1-16v-84.6h33.8V184z"/>
	<path class="st1" d="M679.2,107.8H713v8.5c2.1-2.1,4.3-3.8,6.4-4.9c2.1-1.1,4.2-2,6.3-2.5c2.1-0.5,4.2-0.8,6.3-0.9
		c2.1-0.1,4.2-0.1,6.4-0.1c6.4,0,12.1,0.6,17.4,1.7c5.2,1.1,9.7,3,13.3,5.7c3.7,2.6,6.5,6.1,8.6,10.4c2,4.3,3.1,9.7,3.1,16v50.8
		c0,6.4-1,11.7-3.1,16c-2,4.3-4.9,7.8-8.6,10.4c-3.7,2.6-8.1,4.5-13.3,5.7c-5.2,1.1-11,1.7-17.4,1.7c-2.1,0-4.3,0-6.4-0.1
		c-2.1-0.1-4.2-0.4-6.3-0.9c-2.1-0.5-4.2-1.4-6.3-2.5c-2.1-1.1-4.2-2.8-6.4-4.9v59.2h-33.8V107.8z M730,124.8
		c-3.4,0-6.2,0.5-8.4,1.6c-2.2,1.1-3.9,2.7-5.2,4.8c-1.3,2.1-2.2,4.7-2.6,7.9c-0.5,3.2-0.7,6.9-0.7,11.1V184c0,4.2,0.2,7.9,0.7,11.1
		c0.5,3.2,1.3,5.8,2.6,7.9c1.3,2.1,3,3.7,5.2,4.8c2.2,1.1,5,1.6,8.4,1.6c3.5,0,6.4-0.7,8.6-2c2.2-1.3,3.9-3.1,5.1-5.5
		c1.2-2.3,2.1-5,2.5-8.1c0.5-3.1,0.7-6.4,0.7-9.9v-33.8c0-3.5-0.2-6.8-0.7-9.9c-0.5-3.1-1.3-5.8-2.5-8.1c-1.2-2.3-2.9-4.1-5.1-5.5
		C736.3,125.4,733.5,124.8,730,124.8z"/>
</g>
</svg>
